<svg width="38" height="38" viewBox="0 0 38 38" fill="none" xmlns="http://www.w3.org/2000/svg">
<path fill-rule="evenodd" clip-rule="evenodd" d="M18.9992 0.762695C8.5069 0.762695 0 9.26801 0 19.7619C0 28.1564 5.44327 35.2779 12.9923 37.7906C13.9423 37.9663 14.2906 37.3789 14.2906 36.877C14.2906 36.4242 14.2732 34.928 14.2652 33.34C8.98029 34.4895 7.86409 31.0981 7.86409 31.0981C6.99963 28.9021 5.75518 28.3179 5.75518 28.3179C4.031 27.1383 5.88501 27.1637 5.88501 27.1637C7.79284 27.2983 8.79663 29.1222 8.79663 29.1222C10.4907 32.0259 13.2409 31.1868 14.3254 30.7007C14.4964 29.4721 14.9888 28.6345 15.5319 28.1596C11.3124 27.6798 6.87613 26.0506 6.87613 18.7708C6.87613 16.6967 7.61868 15.001 8.83463 13.6711C8.63672 13.1913 7.986 11.2598 9.01829 8.64262C9.01829 8.64262 10.6142 8.1328 14.2447 10.59C15.7598 10.1689 17.3843 9.95831 18.9992 9.9504C20.6141 9.95831 22.2402 10.1689 23.7585 10.59C27.3842 8.13122 28.9785 8.64262 28.9785 8.64262C30.0124 11.2598 29.3617 13.1913 29.1654 13.6711C30.3829 15.001 31.1207 16.6967 31.1207 18.7708C31.1207 26.0681 26.6765 27.6751 22.446 28.1453C23.1268 28.7343 23.7348 29.8916 23.7348 31.6633C23.7348 34.2061 23.7126 36.2516 23.7126 36.877C23.7126 37.3821 24.0546 37.9758 25.0172 37.789C32.5631 35.2732 38 28.1548 38 19.7635C37.9984 9.26959 29.4915 0.762695 18.9992 0.762695Z" fill="#9999FF"/>
<path d="M7.19616 28.0424C7.15499 28.1374 7.00617 28.1659 6.87001 28.101C6.73226 28.0392 6.65468 27.9094 6.69901 27.816C6.74018 27.7194 6.88901 27.6925 7.02675 27.7574C7.16449 27.8176 7.24366 27.9474 7.19616 28.0424Z" fill="#9999FF"/>
<path d="M7.96536 28.9006C7.87512 28.9845 7.69779 28.9449 7.57746 28.8135C7.45238 28.6805 7.43022 28.5032 7.52205 28.4193C7.61546 28.3354 7.78645 28.3749 7.91153 28.5079C8.03661 28.6393 8.06036 28.8151 7.96536 28.9006Z" fill="#9999FF"/>
<path d="M8.71443 29.9946C8.59727 30.0753 8.40728 29.9993 8.29012 29.8315C8.17295 29.6621 8.17295 29.4594 8.29328 29.3787C8.41044 29.298 8.59885 29.3708 8.7176 29.5386C8.83318 29.7096 8.83318 29.9123 8.71443 29.9946Z" fill="#9999FF"/>
<path d="M9.74044 31.0522C9.63595 31.1678 9.41429 31.1361 9.2528 30.9794C9.08655 30.8258 9.04064 30.6089 9.14513 30.4933C9.25121 30.3777 9.47445 30.411 9.63753 30.5661C9.80219 30.7197 9.85127 30.9382 9.74044 31.0522Z" fill="#9999FF"/>
<path d="M11.1573 31.6649C11.1114 31.8138 10.8977 31.8818 10.6824 31.8185C10.467 31.7536 10.3261 31.5794 10.3705 31.429C10.4148 31.2786 10.6301 31.2089 10.847 31.277C11.0608 31.3404 11.2017 31.5145 11.1573 31.6649Z" fill="#9999FF"/>
<path d="M12.712 31.7789C12.7167 31.9357 12.5347 32.0655 12.3083 32.0686C12.0818 32.0734 11.8966 31.9467 11.895 31.7932C11.895 31.6348 12.0739 31.5066 12.3003 31.5018C12.5267 31.4971 12.712 31.6237 12.712 31.7789Z" fill="#9999FF"/>
<path d="M14.1591 31.5335C14.186 31.6855 14.0292 31.8438 13.8044 31.885C13.5843 31.9261 13.3801 31.8311 13.3516 31.6791C13.3247 31.5224 13.4846 31.3657 13.7047 31.3245C13.9279 31.2849 14.1306 31.3767 14.1591 31.5335Z" fill="#9999FF"/>
</svg>
