<svg width="32" height="32" viewBox="0 0 32 32" fill="none" xmlns="http://www.w3.org/2000/svg">
<g clip-path="url(#clip0_138_2631)">
<path d="M26.3535 12.6107L6.64014 0.0253906V32.0254L26.3455 19.3947C26.9191 19.0342 27.392 18.5342 27.72 17.9414C28.048 17.3487 28.2205 16.6824 28.2213 16.0049C28.2221 15.3274 28.0512 14.6608 27.7245 14.0673C27.3979 13.4737 26.9262 12.9726 26.3535 12.6107ZM24.9135 17.1374L9.31347 27.1374V4.90272L24.9228 14.8681C25.1153 14.9884 25.2738 15.1559 25.3834 15.3547C25.493 15.5535 25.55 15.777 25.5491 16.004C25.5482 16.231 25.4893 16.454 25.3781 16.6519C25.2668 16.8497 25.1069 17.0159 24.9135 17.1347V17.1374Z" fill="#3D4B66"/>
</g>
<defs>
<clipPath id="clip0_138_2631">
<rect width="32" height="32" fill="white"/>
</clipPath>
</defs>
</svg>
